<svg xmlns="http://www.w3.org/2000/svg" viewBox="0 0 24 24" width="24" height="24">
  <path fill="#FB7299" d="M18.5 4.5C18.5 3.67 17.83 3 17 3H7C6.17 3 5.5 3.67 5.5 4.5v15c0 .83.67 1.5 1.5 1.5h10c.83 0 1.5-.67 1.5-1.5v-15zM7 4.5h10v15H7v-15zm4.15 4.85l1.45 1.45c.19.19.51.19.7 0 .19-.19.19-.51 0-.7l-1.45-1.45c-.19-.19-.51-.19-.7 0-.19.19-.19.51 0 .7zm3.5 0l1.45 1.45c.19.19.51.19.7 0 .19-.19.19-.51 0-.7l-1.45-1.45c-.19-.19-.51-.19-.7 0-.19.19-.19.51 0 .7zM9.5 12.5l4.35 4.35c.19.19.51.19.7 0 .19-.19.19-.51 0-.7L10.2 12l3.85-3.85c.19-.19.19-.51 0-.7-.19-.19-.51-.19-.7 0L9.5 12.5z"/>
</svg>